<svg width="36" height="41" viewBox="0 0 36 41" fill="none" xmlns="http://www.w3.org/2000/svg">
<path fill-rule="evenodd" clip-rule="evenodd" d="M2.84639 10.5302L16.8953 2.32475C17.3588 2.05403 17.9298 2.05403 18.3933 2.32475L32.4422 10.5302C32.9057 10.801 33.1913 11.3013 33.1913 11.8427V28.2537C33.1913 28.7951 32.9057 29.2954 32.4422 29.5662L18.3933 37.7716C17.9298 38.0424 17.3588 38.0424 16.8953 37.7716L2.84639 29.5662C2.38288 29.2954 2.09735 28.7951 2.09735 28.2537V11.8427C2.09735 11.3013 2.38288 10.801 2.84639 10.5302ZM15.8466 0.487294C16.959 -0.162431 18.3296 -0.162431 19.442 0.487294L33.4909 8.69278C34.6033 9.34251 35.2886 10.5433 35.2886 11.8427V28.2537C35.2886 29.5531 34.6033 30.7539 33.4909 31.4036L19.442 39.6091C18.3296 40.2588 16.959 40.2588 15.8466 39.6091L1.79774 31.4036C0.685322 30.7539 4.57764e-05 29.5531 4.57764e-05 28.2537V11.8427C4.57764e-05 10.5433 0.685322 9.34251 1.79774 8.69279L15.8466 0.487294Z" fill="#5273EF"/>
<path fill-rule="evenodd" clip-rule="evenodd" d="M16.5129 11.0016C17.2126 10.5887 18.0778 10.5887 18.7774 11.0016L24.477 14.365C25.5671 15.0083 25.5671 16.6017 24.477 17.2449L18.7774 20.6084C18.0778 21.0213 17.2126 21.0213 16.5129 20.6084L14.2821 19.2919C13.7819 18.9967 13.6129 18.3471 13.9047 17.841C14.1965 17.335 14.8386 17.164 15.3389 17.4592L17.5697 18.7757C17.6163 18.8032 17.674 18.8032 17.7207 18.7757L22.7548 15.805L17.7207 12.8342C17.674 12.8067 17.6163 12.8067 17.5697 12.8342L11.5774 16.3704C11.5314 16.3976 11.5031 16.4474 11.5031 16.5013V23.5954C11.5031 23.6493 11.5314 23.6992 11.5774 23.7263L17.5697 27.2625C17.6163 27.29 17.674 27.29 17.7207 27.2625L24.3076 23.3754C24.8078 23.0802 25.4499 23.2512 25.7418 23.7573C26.0336 24.2633 25.8646 24.9129 25.3643 25.2081L18.7774 29.0952C18.0778 29.5081 17.2126 29.5081 16.5129 29.0952L10.5206 25.559C9.83027 25.1516 9.40576 24.4039 9.40576 23.5954V16.5013C9.40576 15.6928 9.83027 14.9451 10.5206 14.5377L16.5129 11.0016Z" fill="#FFFFFF"/>
</svg>
